<svg width="32" height="32" viewBox="0 0 32 32" fill="none" xmlns="http://www.w3.org/2000/svg">
<rect x="2" y="2" width="27" height="28" fill="white"/>
<path d="M18.5924 11.4618L26.8928 15.9971L18.5924 20.5382L19.5064 17.6756H12.4936L13.4047 20.5382L5.10437 16L13.4047 11.4618L12.4936 14.3215H19.5064L18.5924 11.4618Z" fill="#050A52"/>
<path fill-rule="evenodd" clip-rule="evenodd" d="M4.73648 0H27.2635C29.8789 0 32 2.12107 32 4.73648V27.2635C32 29.8789 29.8789 32 27.2635 32H4.73648C2.12107 32 0 29.8789 0 27.2635V4.73648C0 2.12107 2.12107 0 4.73648 0ZM3.13562 15.9971C3.13562 23.1019 8.89528 28.8615 16 28.8615V28.8644C23.1047 28.8644 28.8644 23.1047 28.8644 16C28.8644 8.89528 23.1047 3.13562 16 3.13562C8.89528 3.13562 3.13562 8.8924 3.13562 15.9971Z" fill="#050A52"/>
</svg>
